STARTFONT 2.1
COMMENT This font is still under development.
COMMENT You can use, copy, modify, distribute this file for free.
COMMENT 
COMMENT 94.05.10 created by TAKAHASHI N. <ntakahas@etl.go.jp>
COMMENT   - double column Arabic characters for Mule
COMMENT 94.09.14 modified by TAKAHASHI N. <ntakahas@etl.go.jp>
COMMENT 
FONT -ETL-Fixed-Medium-R-Normal--16-160-72-72-C-160-MuleArabic-2
SIZE 16 72 72
FONTBOUNDINGBOX 16 25 0 -11
STARTPROPERTIES 18
FONTNAME_REGISTRY ""
FOUNDRY "ETL"
FAMILY_NAME "Fixed"
WEIGHT_NAME "Medium"
SLANT "R"
SETWIDITH_NAME "Normal"
ADD_STYLE_NAME ""
PIXEL_SIZE 16
POINT_SIZE 160
RESOLUTION_X 72
RESOLUTION_Y 72
SPACING "C"
AVERAGE_WIDTH 160
CHARSET_REGISTRY "MuleArabic"
CHARSET_ENCODING "2"
DEFAULT_CHAR 33
FONT_ASCENT 14
FONT_DESCENT 11
ENDPROPERTIES
CHARS 78
STARTCHAR hamza on yaa isolated
ENCODING 33
SWIDTH 1000 0
DWIDTH 16 0
BBX 16 25 0 -11
BITMAP
0000
0000
0000
0000
0000
0300
0600
0300
0400
001c
0074
00c0
0080
1080
20e0
2078
200c
2004
381c
1ff8
07e0
0000
0000
0000
0000
ENDCHAR
STARTCHAR hamza on yaa final
ENCODING 34
SWIDTH 1000 0
DWIDTH 16 0
BBX 16 25 0 -11
BITMAP
0000
0000
0000
0000
0000
0000
00c0
0180
00c0
0100
0000
0000
0001
1007
200c
200e
2003
2001
3807
1ffe
07f8
0000
0000
0000
0000
ENDCHAR
STARTCHAR baa isolated
ENCODING 35
SWIDTH 1000 0
DWIDTH 16 0
BBX 16 25 0 -11
BITMAP
0000
0000
0000
0000
0000
0000
0000
0000
2008
200c
2004
300c
1ff8
0ff0
0000
0000
0080
01c0
0080
0000
0000
0000
0000
0000
0000
ENDCHAR
STARTCHAR baa final
ENCODING 36
SWIDTH 1000 0
DWIDTH 16 0
BBX 16 25 0 -11
BITMAP
0000
0000
0000
0000
0000
0000
0000
0000
2000
2004
2004
300e
1fff
0ff3
0000
0000
0080
01c0
0080
0000
0000
0000
0000
0000
0000
ENDCHAR
STARTCHAR taa isolated
ENCODING 37
SWIDTH 1000 0
DWIDTH 16 0
BBX 16 25 0 -11
BITMAP
0000
0000
0000
0240
07e0
0240
0000
0000
2008
200c
2004
300c
1ff8
0ff0
0000
0000
0000
0000
0000
0000
0000
0000
0000
0000
0000
ENDCHAR
STARTCHAR taa final
ENCODING 38
SWIDTH 1000 0
DWIDTH 16 0
BBX 16 25 0 -11
BITMAP
0000
0000
0000
0240
07e0
0240
0000
0000
2000
2004
2004
300e
1fff
0ff3
0000
0000
0000
0000
0000
0000
0000
0000
0000
0000
0000
ENDCHAR
STARTCHAR thaa isolated
ENCODING 39
SWIDTH 1000 0
DWIDTH 16 0
BBX 16 25 0 -11
BITMAP
0000
0080
01c0
0080
0140
03e0
0140
0000
2008
200c
2004
300c
1ff8
0ff0
0000
0000
0000
0000
0000
0000
0000
0000
0000
0000
0000
ENDCHAR
STARTCHAR thaa final
ENCODING 40
SWIDTH 1000 0
DWIDTH 16 0
BBX 16 25 0 -11
BITMAP
0000
0080
01c0
0080
0140
03e0
0140
0000
2000
2004
2004
300e
1fff
0ff3
0000
0000
0000
0000
0000
0000
0000
0000
0000
0000
0000
ENDCHAR
STARTCHAR jiim isolated
ENCODING 41
SWIDTH 1000 0
DWIDTH 16 0
BBX 16 25 0 -11
BITMAP
0000
0000
0000
0000
0000
0000
0000
0000
0000
1ffc
33f8
0300
0400
0400
0840
08e0
0840
0800
0e04
07f8
01f0
0000
0000
0000
0000
ENDCHAR
STARTCHAR jiim initial
ENCODING 42
SWIDTH 1000 0
DWIDTH 16 0
BBX 16 25 0 -11
BITMAP
0000
0000
0000
0000
0000
0000
0000
0000
0f80
07f0
007c
01f0
ff80
fe00
0000
0000
0080
01c0
0080
0000
0000
0000
0000
0000
0000
ENDCHAR
STARTCHAR jiim medial
ENCODING 43
SWIDTH 1000 0
DWIDTH 16 0
BBX 16 25 0 -11
BITMAP
0000
0000
0000
0000
0000
0000
0000
1f00
0fe0
00f8
01c0
0780
feff
f87f
0000
0000
0100
0380
0100
0000
0000
0000
0000
0000
0000
ENDCHAR
STARTCHAR jiim final
ENCODING 44
SWIDTH 1000 0
DWIDTH 16 0
BBX 16 25 0 -11
BITMAP
0000
0000
0000
0000
0000
0000
0000
0000
0000
1ff8
33f0
0320
043f
041f
0840
08e0
0840
0800
0e04
07f8
01f0
0000
0000
0000
0000
ENDCHAR
STARTCHAR Haa isolated
ENCODING 45
SWIDTH 1000 0
DWIDTH 16 0
BBX 16 25 0 -11
BITMAP
0000
0000
0000
0000
0000
0000
0000
0000
0000
1ffc
33f8
0300
0400
0400
0800
0800
0800
0800
0e04
07f8
01f0
0000
0000
0000
0000
ENDCHAR
STARTCHAR Haa initial
ENCODING 46
SWIDTH 1000 0
DWIDTH 16 0
BBX 16 25 0 -11
BITMAP
0000
0000
0000
0000
0000
0000
0000
0000
0f80
07f0
007c
01f0
ff80
fe00
0000
0000
0000
0000
0000
0000
0000
0000
0000
0000
0000
ENDCHAR
STARTCHAR Haa medial
ENCODING 47
SWIDTH 1000 0
DWIDTH 16 0
BBX 16 25 0 -11
BITMAP
0000
0000
0000
0000
0000
0000
0000
1f00
0fe0
00f8
01c0
0780
feff
f87f
0000
0000
0000
0000
0000
0000
0000
0000
0000
0000
0000
ENDCHAR
STARTCHAR Haa final
ENCODING 48
SWIDTH 1000 0
DWIDTH 16 0
BBX 16 25 0 -11
BITMAP
0000
0000
0000
0000
0000
0000
0000
0000
0000
1ff8
33f0
0320
043f
041f
0800
0800
0800
0800
0e04
07f8
01f0
0000
0000
0000
0000
ENDCHAR
STARTCHAR khaa isolated
ENCODING 49
SWIDTH 1000 0
DWIDTH 16 0
BBX 16 25 0 -11
BITMAP
0000
0000
0000
0000
0100
0380
0100
0000
0000
1ffc
33f8
0300
0400
0400
0800
0800
0800
0800
0e04
07f8
01f0
0000
0000
0000
0000
ENDCHAR
STARTCHAR khaa initial
ENCODING 50
SWIDTH 1000 0
DWIDTH 16 0
BBX 16 25 0 -11
BITMAP
0000
0000
0000
0080
01c0
0080
0000
0000
0f80
07f0
007c
01f0
ff80
fe00
0000
0000
0000
0000
0000
0000
0000
0000
0000
0000
0000
ENDCHAR
STARTCHAR khaa medial
ENCODING 51
SWIDTH 1000 0
DWIDTH 16 0
BBX 16 25 0 -11
BITMAP
0000
0000
0100
0380
0100
0000
0000
1f00
0fe0
00f8
01c0
0780
feff
f87f
0000
0000
0000
0000
0000
0000
0000
0000
0000
0000
0000
ENDCHAR
STARTCHAR khaa final
ENCODING 52
SWIDTH 1000 0
DWIDTH 16 0
BBX 16 25 0 -11
BITMAP
0000
0000
0000
0000
0100
0380
0100
0000
0000
1ff8
33f0
0320
043f
041f
0800
0800
0800
0800
0e04
07f8
01f0
0000
0000
0000
0000
ENDCHAR
STARTCHAR siin isolated
ENCODING 53
SWIDTH 1000 0
DWIDTH 16 0
BBX 16 25 0 -11
BITMAP
0000
0000
0000
0000
0000
0000
0000
0000
0000
0004
0124
0124
21fc
41d8
4100
4300
7e00
3c00
0000
0000
0000
0000
0000
0000
0000
ENDCHAR
STARTCHAR siin initial
ENCODING 54
SWIDTH 1000 0
DWIDTH 16 0
BBX 16 25 0 -11
BITMAP
0000
0000
0000
0000
0000
0000
0000
0000
0000
0004
0444
0444
fffc
fbb8
0000
0000
0000
0000
0000
0000
0000
0000
0000
0000
0000
ENDCHAR
STARTCHAR siin medial
ENCODING 55
SWIDTH 1000 0
DWIDTH 16 0
BBX 16 25 0 -11
BITMAP
0000
0000
0000
0000
0000
0000
0000
0000
0000
0000
1110
1110
ffff
eeef
0000
0000
0000
0000
0000
0000
0000
0000
0000
0000
0000
ENDCHAR
STARTCHAR siin final
ENCODING 56
SWIDTH 1000 0
DWIDTH 16 0
BBX 16 25 0 -11
BITMAP
0000
0000
0000
0000
0000
0000
0000
0000
0000
0000
0124
0124
21ff
41db
4100
4300
7e00
3c00
0000
0000
0000
0000
0000
0000
0000
ENDCHAR
STARTCHAR shiin isolated
ENCODING 57
SWIDTH 1000 0
DWIDTH 16 0
BBX 16 25 0 -11
BITMAP
0000
0000
0020
0070
0020
0050
00f8
0050
0000
0004
0124
0124
21fc
41d8
4100
4300
7e00
3c00
0000
0000
0000
0000
0000
0000
0000
ENDCHAR
STARTCHAR shiin initial
ENCODING 58
SWIDTH 1000 0
DWIDTH 16 0
BBX 16 25 0 -11
BITMAP
0000
0000
0040
00e0
0040
00a0
01f0
00a0
0000
0004
0444
0444
fffc
fb98
0000
0000
0000
0000
0000
0000
0000
0000
0000
0000
0000
ENDCHAR
STARTCHAR shiin medial
ENCODING 59
SWIDTH 1000 0
DWIDTH 16 0
BBX 16 25 0 -11
BITMAP
0000
0000
0100
0380
0100
0280
07c0
0280
0000
0000
1110
1110
ffff
eeef
0000
0000
0000
0000
0000
0000
0000
0000
0000
0000
0000
ENDCHAR
STARTCHAR shiin final
ENCODING 60
SWIDTH 1000 0
DWIDTH 16 0
BBX 16 25 0 -11
BITMAP
0000
0000
0020
0070
0020
0050
00f8
0050
0000
0000
0124
0124
21ff
41db
4100
4300
7e00
3c00
0000
0000
0000
0000
0000
0000
0000
ENDCHAR
STARTCHAR Saad isolated
ENCODING 61
SWIDTH 1000 0
DWIDTH 16 0
BBX 16 25 0 -11
BITMAP
0000
0000
0000
0000
0000
0000
0000
0000
003c
007e
00c2
0282
23fe
41fc
4100
4300
7e00
3c00
0000
0000
0000
0000
0000
0000
0000
ENDCHAR
STARTCHAR Saad initial
ENCODING 62
SWIDTH 1000 0
DWIDTH 16 0
BBX 16 25 0 -11
BITMAP
0000
0000
0000
0000
0000
0000
0000
0000
0078
00fc
0184
220c
fffc
dff8
0800
0000
0000
0000
0000
0000
0000
0000
0000
0000
0000
ENDCHAR
STARTCHAR Saad medial
ENCODING 63
SWIDTH 1000 0
DWIDTH 16 0
BBX 16 25 0 -11
BITMAP
0000
0000
0000
0000
0000
0000
0000
0000
0078
00fc
0184
220c
ffff
dfff
0800
0000
0000
0000
0000
0000
0000
0000
0000
0000
0000
ENDCHAR
STARTCHAR Saad final
ENCODING 64
SWIDTH 1000 0
DWIDTH 16 0
BBX 16 25 0 -11
BITMAP
0000
0000
0000
0000
0000
0000
0000
0000
003c
007e
00c2
0282
23ff
41ff
4100
4300
7e00
3c00
0000
0000
0000
0000
0000
0000
0000
ENDCHAR
STARTCHAR Daad isolated
ENCODING 65
SWIDTH 1000 0
DWIDTH 16 0
BBX 16 25 0 -11
BITMAP
0000
0000
0000
0000
0100
0380
0100
0000
003c
007e
00c2
0282
23fe
41fc
4100
4300
7e00
3c00
0000
0000
0000
0000
0000
0000
0000
ENDCHAR
STARTCHAR Daad initial
ENCODING 66
SWIDTH 1000 0
DWIDTH 16 0
BBX 16 25 0 -11
BITMAP
0000
0000
0000
0000
0000
0200
0700
0200
0078
00fc
0184
220c
fffc
dff8
0800
0000
0000
0000
0000
0000
0000
0000
0000
0000
0000
ENDCHAR
STARTCHAR Daad medial
ENCODING 67
SWIDTH 1000 0
DWIDTH 16 0
BBX 16 25 0 -11
BITMAP
0000
0000
0000
0000
0000
0200
0700
0200
0078
00fc
0184
220c
ffff
dfff
0800
0000
0000
0000
0000
0000
0000
0000
0000
0000
0000
ENDCHAR
STARTCHAR Daad final
ENCODING 68
SWIDTH 1000 0
DWIDTH 16 0
BBX 16 25 0 -11
BITMAP
0000
0000
0000
0000
0100
0380
0100
0000
003c
007e
00c2
0282
23ff
41ff
4100
4300
7e00
3c00
0000
0000
0000
0000
0000
0000
0000
ENDCHAR
STARTCHAR Taa isolated
ENCODING 69
SWIDTH 1000 0
DWIDTH 16 0
BBX 16 25 0 -11
BITMAP
0000
0000
0200
0300
0200
0200
0200
0200
0238
026c
02c4
0384
3ffc
1ff8
0000
0000
0000
0000
0000
0000
0000
0000
0000
0000
0000
ENDCHAR
STARTCHAR Taa initial
ENCODING 70
SWIDTH 1000 0
DWIDTH 16 0
BBX 16 25 0 -11
BITMAP
0000
0000
0200
0300
0200
0200
0200
0200
0238
026c
02c4
0384
fffc
fff8
0000
0000
0000
0000
0000
0000
0000
0000
0000
0000
0000
ENDCHAR
STARTCHAR Taa medial
ENCODING 71
SWIDTH 1000 0
DWIDTH 16 0
BBX 16 25 0 -11
BITMAP
0000
0000
0400
0600
0400
0400
0400
0400
0470
04d8
0588
0708
ffff
ffff
0000
0000
0000
0000
0000
0000
0000
0000
0000
0000
0000
ENDCHAR
STARTCHAR Taa final
ENCODING 72
SWIDTH 1000 0
DWIDTH 16 0
BBX 16 25 0 -11
BITMAP
0000
0000
0200
0300
0200
0200
0200
0200
0238
026c
02c4
0384
3fff
1fff
0000
0000
0000
0000
0000
0000
0000
0000
0000
0000
0000
ENDCHAR
STARTCHAR Zaa isolated
ENCODING 73
SWIDTH 1000 0
DWIDTH 16 0
BBX 16 25 0 -11
BITMAP
0000
0000
0200
0310
0238
0210
0200
0200
0238
026c
02c4
0384
3ffc
1ff8
0000
0000
0000
0000
0000
0000
0000
0000
0000
0000
0000
ENDCHAR
STARTCHAR Zaa initial
ENCODING 74
SWIDTH 1000 0
DWIDTH 16 0
BBX 16 25 0 -11
BITMAP
0000
0000
0200
0310
0238
0210
0200
0200
0238
026c
02c4
0384
fffc
fff8
0000
0000
0000
0000
0000
0000
0000
0000
0000
0000
0000
ENDCHAR
STARTCHAR Zaa medial
ENCODING 75
SWIDTH 1000 0
DWIDTH 16 0
BBX 16 25 0 -11
BITMAP
0000
0000
0400
0620
0470
0420
0400
0400
0470
04d8
0588
0708
ffff
ffff
0000
0000
0000
0000
0000
0000
0000
0000
0000
0000
0000
ENDCHAR
STARTCHAR Zaa final
ENCODING 76
SWIDTH 1000 0
DWIDTH 16 0
BBX 16 25 0 -11
BITMAP
0000
0000
0200
0310
0238
0210
0200
0200
0238
026c
02c4
0384
3fff
1fff
0000
0000
0000
0000
0000
0000
0000
0000
0000
0000
0000
ENDCHAR
STARTCHAR ayn isolated
ENCODING 77
SWIDTH 1000 0
DWIDTH 16 0
BBX 16 25 0 -11
BITMAP
0000
0000
0000
0000
0000
0000
0000
0700
0c00
0800
0800
0ee0
0780
0c00
1800
1000
1000
1000
1818
0fe0
07c0
0000
0000
0000
0000
ENDCHAR
STARTCHAR ayn final
ENCODING 78
SWIDTH 1000 0
DWIDTH 16 0
BBX 16 25 0 -11
BITMAP
0000
0000
0000
0000
0000
0000
0000
0000
0000
03e0
07e0
0180
03ff
067f
0c00
0800
0800
0800
0c0c
07f0
03e0
0000
0000
0000
0000
ENDCHAR
STARTCHAR ghayn isolated
ENCODING 79
SWIDTH 1000 0
DWIDTH 16 0
BBX 16 25 0 -11
BITMAP
0000
0000
0400
0e00
0400
0000
0000
0700
0c00
0800
0800
0ee0
0780
0c00
1800
1000
1000
1000
1818
0fe0
07c0
0000
0000
0000
0000
ENDCHAR
STARTCHAR ghayn final
ENCODING 80
SWIDTH 1000 0
DWIDTH 16 0
BBX 16 25 0 -11
BITMAP
0000
0000
0000
0000
0100
0380
0100
0000
0000
03e0
07e0
0180
03ff
067f
0c00
0800
0800
0800
0c0c
07f0
03e0
0000
0000
0000
0000
ENDCHAR
STARTCHAR faa isolated
ENCODING 81
SWIDTH 1000 0
DWIDTH 16 0
BBX 16 25 0 -11
BITMAP
0040
00e0
0040
0000
0000
0018
003c
0024
203c
2014
2004
300c
1ff8
0ff0
0000
0000
0000
0000
0000
0000
0000
0000
0000
0000
0000
ENDCHAR
STARTCHAR faa final
ENCODING 82
SWIDTH 1000 0
DWIDTH 16 0
BBX 16 25 0 -11
BITMAP
0000
0000
0040
00e0
0040
0000
0000
0018
203c
2024
203c
301c
1fff
0ff7
0000
0000
0000
0000
0000
0000
0000
0000
0000
0000
0000
ENDCHAR
STARTCHAR qaaf isolated
ENCODING 83
SWIDTH 1000 0
DWIDTH 16 0
BBX 16 25 0 -11
BITMAP
0000
0000
0090
01f8
0090
0000
0000
0060
00f0
0890
10f0
1070
1010
1010
1830
0fe0
07c0
0000
0000
0000
0000
0000
0000
0000
0000
ENDCHAR
STARTCHAR qaaf final
ENCODING 84
SWIDTH 1000 0
DWIDTH 16 0
BBX 16 25 0 -11
BITMAP
0000
0000
0000
0000
0120
03f0
0120
0000
0000
10c0
21e0
2120
21ff
20ff
3060
1fc0
0f80
0000
0000
0000
0000
0000
0000
0000
0000
ENDCHAR
STARTCHAR kaaf isolated
ENCODING 85
SWIDTH 1000 0
DWIDTH 16 0
BBX 16 25 0 -11
BITMAP
0000
0008
000c
0008
0008
0188
0308
0188
0208
2008
2008
2018
3ff0
1fe0
0000
0000
0000
0000
0000
0000
0000
0000
0000
0000
0000
ENDCHAR
STARTCHAR kaaf initial
ENCODING 86
SWIDTH 1000 0
DWIDTH 16 0
BBX 16 25 0 -11
BITMAP
0000
0000
001c
0078
01c0
0700
0400
0600
0300
0180
0080
00c0
ffc0
ff80
0000
0000
0000
0000
0000
0000
0000
0000
0000
0000
0000
ENDCHAR
STARTCHAR kaaf medial
ENCODING 87
SWIDTH 1000 0
DWIDTH 16 0
BBX 16 25 0 -11
BITMAP
0000
0000
0038
00f0
0380
0e00
0800
0c00
0600
0300
0380
06c0
fc7f
f83f
0000
0000
0000
0000
0000
0000
0000
0000
0000
0000
0000
ENDCHAR
STARTCHAR kaaf final
ENCODING 88
SWIDTH 1000 0
DWIDTH 16 0
BBX 16 25 0 -11
BITMAP
0000
0010
0010
0010
0010
0310
0610
0310
0410
2010
2030
2078
3fef
1f87
0000
0000
0000
0000
0000
0000
0000
0000
0000
0000
0000
ENDCHAR
STARTCHAR laam isolated
ENCODING 89
SWIDTH 1000 0
DWIDTH 16 0
BBX 16 25 0 -11
BITMAP
0000
0000
0008
000c
0008
0008
0008
0008
0008
0008
0008
0008
1008
1008
1018
1ff0
0fe0
0000
0000
0000
0000
0000
0000
0000
0000
ENDCHAR
STARTCHAR laam final
ENCODING 90
SWIDTH 1000 0
DWIDTH 16 0
BBX 16 25 0 -11
BITMAP
0000
0000
0010
0010
0010
0010
0010
0010
0010
0010
0010
0018
201f
2017
2030
3fe0
1fc0
0000
0000
0000
0000
0000
0000
0000
0000
ENDCHAR
STARTCHAR nuun isolated
ENCODING 91
SWIDTH 1000 0
DWIDTH 16 0
BBX 16 25 0 -11
BITMAP
0000
0000
0000
0000
0000
0000
0080
01c0
0080
0000
0000
0410
0808
0808
0808
0c18
07f0
03e0
0000
0000
0000
0000
0000
0000
0000
ENDCHAR
STARTCHAR nuun final
ENCODING 92
SWIDTH 1000 0
DWIDTH 16 0
BBX 16 25 0 -11
BITMAP
0000
0000
0000
0000
0000
0000
0100
0380
0100
0000
0000
0008
200f
200f
2008
3018
1ff0
0fe0
0000
0000
0000
0000
0000
0000
0000
ENDCHAR
STARTCHAR alif maqSura isolated
ENCODING 93
SWIDTH 1000 0
DWIDTH 16 0
BBX 16 25 0 -11
BITMAP
0000
0000
0000
0000
0000
0000
0000
0000
0000
001c
0074
00c0
0080
1080
20e0
2078
200c
2004
381c
1ff8
07e0
0000
0000
0000
0000
ENDCHAR
STARTCHAR alif maqSura final
ENCODING 94
SWIDTH 1000 0
DWIDTH 16 0
BBX 16 25 0 -11
BITMAP
0000
0000
0000
0000
0000
0000
0000
0000
0000
0000
0000
0000
0001
1007
200e
200e
2003
2001
3807
1ffe
07f8
0000
0000
0000
0000
ENDCHAR
STARTCHAR yaa isolated
ENCODING 95
SWIDTH 1000 0
DWIDTH 16 0
BBX 16 25 0 -11
BITMAP
0000
0000
0000
0000
0000
0000
0000
0000
0000
001c
0074
00c0
0080
1080
20e0
2078
200c
2004
381c
1ff8
07e0
0000
0240
07e0
0240
ENDCHAR
STARTCHAR yaa final
ENCODING 96
SWIDTH 1000 0
DWIDTH 16 0
BBX 16 25 0 -11
BITMAP
0000
0000
0000
0000
0000
0000
0000
0000
0000
0000
0000
0000
0001
1007
200e
200e
2003
2001
3807
1ffe
07f8
0000
0120
03f0
0120
ENDCHAR
STARTCHAR laam + madda on alif final
ENCODING 97
SWIDTH 1000 0
DWIDTH 16 0
BBX 16 25 0 -11
BITMAP
3900
4e00
0000
2080
3080
1880
0c80
0480
0680
0280
0280
03c0
0f7f
3e3f
0000
0000
0000
0000
0000
0000
0000
0000
0000
0000
0000
ENDCHAR
STARTCHAR laam + hamza on alif final
ENCODING 98
SWIDTH 1000 0
DWIDTH 16 0
BBX 16 25 0 -11
BITMAP
0600
0c00
0600
2880
3080
1880
0c80
0480
0680
0280
0280
03c0
0f7f
3e3f
0000
0000
0000
0000
0000
0000
0000
0000
0000
0000
0000
ENDCHAR
STARTCHAR laam + hamza under alif final
ENCODING 99
SWIDTH 1000 0
DWIDTH 16 0
BBX 16 25 0 -11
BITMAP
0000
0000
0000
2080
3080
1880
0c80
0480
0680
0280
0280
03c0
0f7f
3e3f
0000
0000
1800
3000
1800
2000
0000
0000
0000
0000
0000
ENDCHAR
STARTCHAR laam + alif final
ENCODING 100
SWIDTH 1000 0
DWIDTH 16 0
BBX 16 25 0 -11
BITMAP
0000
0000
0000
2080
3080
1880
0c80
0480
0680
0280
0280
03c0
0f7f
3e3f
0000
0000
0000
0000
0000
0000
0000
0000
0000
0000
0000
ENDCHAR
STARTCHAR paa isolated
ENCODING 101
SWIDTH 1000 0
DWIDTH 16 0
BBX 16 25 0 -11
BITMAP
0000
0000
0000
0000
0000
0000
0000
0000
2008
200c
2004
300c
1ff8
0ff0
0000
0000
0140
03e0
0140
0080
01c0
0080
0000
0000
0000
ENDCHAR
STARTCHAR paa final
ENCODING 102
SWIDTH 1000 0
DWIDTH 16 0
BBX 16 25 0 -11
BITMAP
0000
0000
0000
0000
0000
0000
0000
0000
2000
2004
2004
300e
1fff
0ff3
0000
0000
0140
03e0
0140
0080
01c0
0080
0000
0000
0000
ENDCHAR
STARTCHAR chiim isolated
ENCODING 103
SWIDTH 1000 0
DWIDTH 16 0
BBX 16 25 0 -11
BITMAP
0000
0000
0000
0000
0000
0000
0000
0000
0000
1ffc
33f8
0300
0450
04f8
0850
0820
0870
0820
0e04
07f8
01f0
0000
0000
0000
0000
ENDCHAR
STARTCHAR chiim initial
ENCODING 104
SWIDTH 1000 0
DWIDTH 16 0
BBX 16 25 0 -11
BITMAP
0000
0000
0000
0000
0000
0000
0000
0000
0f80
07f0
007c
01f0
ff80
fe00
0000
0000
0140
03e0
0140
0080
01c0
0080
0000
0000
0000
ENDCHAR
STARTCHAR chiim medial
ENCODING 105
SWIDTH 1000 0
DWIDTH 16 0
BBX 16 25 0 -11
BITMAP
0000
0000
0000
0000
0000
0000
0000
1f00
0fe0
00f8
01c0
0780
feff
f87f
0000
0000
0280
07c0
0280
0100
0380
0100
0000
0000
0000
ENDCHAR
STARTCHAR chiim final
ENCODING 106
SWIDTH 1000 0
DWIDTH 16 0
BBX 16 25 0 -11
BITMAP
0000
0000
0000
0000
0000
0000
0000
0000
0000
1ffc
33f8
0310
041f
04af
09f0
08a0
0840
08e0
0840
0e04
07f8
01f0
0000
0000
0000
ENDCHAR
STARTCHAR gaaf isolated
ENCODING 107
SWIDTH 1000 0
DWIDTH 16 0
BBX 16 25 0 -11
BITMAP
0018
0070
01c6
031c
0070
01c0
0100
0180
00c0
0060
4020
4030
7ff0
3fe0
0000
0000
0000
0000
0000
0000
0000
0000
0000
0000
0000
ENDCHAR
STARTCHAR gaaf initial
ENCODING 108
SWIDTH 1000 0
DWIDTH 16 0
BBX 16 25 0 -11
BITMAP
0030
00e0
039c
0678
01c0
0700
0400
0600
0300
0180
0080
00c0
ffc0
ff80
0000
0000
0000
0000
0000
0000
0000
0000
0000
0000
0000
ENDCHAR
STARTCHAR gaaf medial
ENCODING 109
SWIDTH 1000 0
DWIDTH 16 0
BBX 16 25 0 -11
BITMAP
0060
01c0
0730
0ce0
0380
0e00
0800
0c00
0600
0300
0380
06c0
fc7f
f83f
0000
0000
0000
0000
0000
0000
0000
0000
0000
0000
0000
ENDCHAR
STARTCHAR gaaf final
ENCODING 110
SWIDTH 1000 0
DWIDTH 16 0
BBX 16 25 0 -11
BITMAP
0018
0070
01c6
031c
0070
01c0
0100
0180
00c0
0060
0070
40d8
7f8f
3f07
0000
0000
0000
0000
0000
0000
0000
0000
0000
0000
0000
ENDCHAR
ENDFONT
